PathFileType	4	(X/Y/Z)	D:\telocate\uwb03-Unnamed.trc
DataRate	CameraRate	NumFrames	NumMarkers	Units	OrigDataRate	OrigDataStartFrame	OrigNumFrames
100.00	100.00	      234	0	mm	100.00	3739	      9968
Frame#	Time	
		

3739	37.380	-1628.97461	2013.88147	1182.86023	
3740	37.390	-1629.21606	2014.35034	1182.90173	
3741	37.400	-1629.33887	2014.46765	1182.87146	
3742	37.410	-1629.50769	2014.56238	1182.89856	
3743	37.420	-1630.10693	2014.86548	1182.75476	
3744	37.430	-1631.32080	2014.58838	1184.41650	
3745	37.440	-1631.30286	2014.86365	1184.83191	
3746	37.450	-1631.42358	2014.91296	1184.69507	
3747	37.460	-1632.83459	2014.86279	1183.72546	
3748	37.470	-1634.34167	2015.20215	1183.95898	
3749	37.480	-1634.98474	2015.61426	1184.04199	
3750	37.490	-1636.20996	2015.83337	1183.80945	
3751	37.500	-1636.44824	2016.84583	1184.25269	
3752	37.510	-1637.13806	2017.22583	1184.13306	
3753	37.520	-1638.11023	2017.38037	1183.86926	
3754	37.530	-1638.73022	2017.72375	1184.06409	
3755	37.540	-1639.22266	2017.72449	1184.27173	
3756	37.550	-1639.82031	2018.23938	1184.63342	
3757	37.560	-1641.08191	2018.05835	1183.41907	
3758	37.570	-1642.06128	2017.34570	1181.65405	
3759	37.580	-1641.90540	2018.14417	1183.73889	
3760	37.590	-1642.14197	2017.99365	1183.76270	
3761	37.600	-1642.31079	2017.74207	1183.78918	
3762	37.610	-1643.74414	2017.62793	1183.30994	
3763	37.620	-1643.88306	2017.51208	1183.27673	
3764	37.630	-1644.38892	2017.17688	1183.24036	
3765	37.640	-1644.55164	2017.03113	1183.03723	
3766	37.650	-1644.78296	2016.66821	1183.29834	
3767	37.660	-1644.91479	2016.38184	1183.45129	
3768	37.670	-1645.66345	2016.48914	1183.67883	
3769	37.680	-1645.78540	2016.31091	1183.65723	
3770	37.690	-1645.90063	2016.05396	1183.67615	
3771	37.700	-1645.99683	2015.87366	1183.72375	
3772	37.710	-1646.12207	2015.72290	1183.71948	
3773	37.720	-1646.20178	2015.44617	1183.82385	
3774	37.730	-1646.43994	2015.39355	1183.83630	
3775	37.740	-1646.55212	2015.14954	1183.97925	
3776	37.750	-1645.84680	2014.90344	1184.60229	
3777	37.760	-1645.98706	2014.83716	1184.62720	
3778	37.770	-1646.77551	2014.30322	1185.58142	
3779	37.780	-1647.05786	2014.23950	1185.62976	
3780	37.790	-1647.39038	2014.10364	1185.60962	
3781	37.800	-1648.33008	2014.22083	1185.63489	
3782	37.810	-1648.95190	2014.22546	1185.36597	
3783	37.820	-1649.69519	2014.45923	1185.22058	
3784	37.830	-1650.31885	2014.23438	1185.05554	
3785	37.840	-1650.99255	2014.28625	1185.01685	
3786	37.850	-1651.04480	2014.02429	1184.68323	
3787	37.860	-1652.12097	2014.64368	1185.37585	
3788	37.870	-1652.66980	2014.32336	1184.12988	
3789	37.880	-1652.56934	2014.93372	1185.35413	
3790	37.890	-1653.22729	2014.45349	1183.86963	
3791	37.900	-1652.79346	2015.53430	1185.22217	
3792	37.910	-1653.45581	2015.06335	1183.70032	
3793	37.920	-1653.49365	2015.52185	1184.96143	
3794	37.930	-1653.77527	2015.57214	1184.86829	
3795	37.940	-1653.98181	2015.60767	1184.83789	
3796	37.950	-1654.30481	2015.85364	1184.77832	
3797	37.960	-1654.57190	2015.87732	1184.70837	
3798	37.970	-1654.62036	2015.87939	1184.69873	
3799	37.980	-1654.97546	2015.97424	1184.89490	
3800	37.990	-1654.75525	2016.07764	1185.25781	
3801	38.000	-1655.19263	2015.94531	1184.86218	
3802	38.010	-1654.98535	2015.86304	1184.71460	
3803	38.020	-1655.02539	2015.98975	1185.18933	
3804	38.030	-1655.60718	2016.03906	1184.87231	
3805	38.040	-1655.63428	2016.04626	1184.89917	
3806	38.050	-1655.75293	2016.00684	1184.87891	
3807	38.060	-1655.91370	2016.13342	1184.99536	
3808	38.070	-1655.95642	2016.16797	1184.76440	
3809	38.080	-1656.18896	2016.32764	1185.09363	
3810	38.090	-1656.30273	2016.46936	1184.93652	
3811	38.100	-1656.48694	2016.19336	1184.80481	
3812	38.110	-1656.52209	2016.20898	1184.82703	
3813	38.120	-1656.53503	2016.17175	1184.76758	
3814	38.130	-1656.50964	2016.22412	1184.75195	
3815	38.140	-1656.57434	2016.28101	1184.72571	
3816	38.150	-1656.73254	2016.46338	1184.85339	
3817	38.160	-1656.72168	2016.57251	1184.78125	
3818	38.170	-1656.73669	2016.59375	1184.78247	
3819	38.180	-1656.48511	2016.70557	1185.17004	
3820	38.190	-1656.60962	2016.41357	1184.73193	
3821	38.200	-1656.74951	2016.73438	1184.75500	
3822	38.210	-1656.27515	2017.31055	1185.06592	
3823	38.220	-1656.81775	2017.06592	1184.74829	
3824	38.230	-1656.12292	2017.45679	1185.10754	
3825	38.240	-1656.37109	2017.51099	1184.75867	
3826	38.250	-1656.34009	2017.64575	1184.69324	
3827	38.260	-1656.28528	2017.70923	1184.66943	
3828	38.270	-1656.12549	2017.82727	1184.67310	
3829	38.280	-1656.06372	2017.98584	1184.72083	
3830	38.290	-1655.67737	2018.13965	1185.08850	
3831	38.300	-1655.96240	2018.15112	1184.80750	
3832	38.310	-1655.91699	2018.27478	1184.85571	
3833	38.320	-1655.60571	2018.50378	1185.17712	
3834	38.330	-1655.62744	2018.64795	1185.18347	
3835	38.340	-1655.69666	2018.78552	1185.13135	
3836	38.350	-1655.68286	2018.99243	1185.13391	
3837	38.360	-1655.72046	2019.14612	1185.05261	
3838	38.370	-1656.60730	2019.36389	1184.59448	
3839	38.380	-1656.60229	2019.53918	1184.59363	
3840	38.390	-1658.19666	2018.62097	1181.70557	
3841	38.400	-1657.10742	2020.01880	1184.26685	
3842	38.410	-1656.84253	2018.59814	1181.51208	
3843	38.420	-1657.18372	2020.35645	1184.40784	
3844	38.430	-1657.33569	2020.50903	1184.53015	
3845	38.440	-1657.95569	2021.10022	1184.67700	
3846	38.450	-1658.09399	2021.26440	1184.43848	
3847	38.460	-1658.80237	2021.37354	1184.71643	
3848	38.470	-1658.26135	2021.43164	1185.55396	
3849	38.480	-1658.34265	2021.47290	1185.50793	
3850	38.490	-1658.60913	2021.59045	1185.43835	
3851	38.500	-1658.82739	2021.90479	1185.45825	
3852	38.510	-1659.21729	2021.82214	1185.44690	
3853	38.520	-1659.47595	2022.13818	1185.41797	
3854	38.530	-1659.53125	2022.21582	1185.42908	
3855	38.540	-1660.10754	2022.38745	1185.21533	
3856	38.550	-1660.16821	2022.48755	1185.24536	
3857	38.560	-1660.05945	2023.03345	1185.33899	
3858	38.570	-1660.67017	2022.81128	1184.35852	
3859	38.580	-1660.80029	2022.84985	1184.35205	
3860	38.590	-1660.96790	2022.93994	1184.26526	
3861	38.600	-1661.63733	2023.39380	1184.61353	
3862	38.610	-1661.12000	2023.12842	1184.32471	
3863	38.620	-1661.74048	2023.55725	1184.56018	
3864	38.630	-1661.72961	2023.59583	1184.59253	
3865	38.640	-1661.24719	2023.27307	1184.30334	
3866	38.650	-1661.76672	2023.67004	1184.53027	
3867	38.660	-1661.76257	2023.74707	1184.57068	
3868	38.670	-1661.02295	2024.23755	1184.33813	
3869	38.680	-1660.90662	2024.29944	1184.34912	
3870	38.690	-1662.29858	2025.56641	1183.93298	
3871	38.700	-1662.23535	2025.61243	1183.99231	
3872	38.710	-1662.17444	2025.68579	1184.02356	
3873	38.720	-1662.42419	2026.02209	1184.27722	
3874	38.730	-1661.94080	2025.83325	1184.11011	
3875	38.740	-1662.14502	2026.09509	1184.39221	
3876	38.750	-1662.15039	2026.10938	1184.41382	
3877	38.760	-1661.71643	2025.82544	1184.11584	
3878	38.770	-1661.46265	2026.15735	1184.23657	
3879	38.780	-1661.66394	2026.17468	1184.01440	
3880	38.790	-1661.54114	2026.15369	1184.06519	
3881	38.800	-1661.48108	2026.18945	1184.01953	
3882	38.810	-1662.73193	2026.76184	1184.36133	
3883	38.820	-1663.04199	2027.36523	1185.13818	
3884	38.830	-1663.81519	2028.69763	1185.72791	
3885	38.840	-1662.93933	2027.35864	1185.05493	
3886	38.850	-1663.69153	2028.64941	1185.74072	
3887	38.860	-1662.63818	2027.18896	1185.11255	
3888	38.870	-1660.51428	2026.66089	1184.86450	
3889	38.880	-1660.39307	2026.21045	1184.05200	
3890	38.890	-1660.40125	2026.64319	1184.84766	
3891	38.900	-1660.02490	2026.55969	1184.94226	
3892	38.910	-1660.03967	2026.44263	1184.96094	
3893	38.920	-1659.94727	2026.47534	1184.97913	
3894	38.930	-1659.68164	2026.37903	1184.81714	
3895	38.940	-1659.46570	2026.13159	1184.90247	
3896	38.950	-1659.05786	2026.30481	1185.06641	
3897	38.960	-1659.01306	2026.10120	1185.23755	
3898	38.970	-1658.81738	2026.04651	1185.09204	
3899	38.980	-1658.72998	2025.87915	1185.16980	
3900	38.990	-1658.80652	2025.80212	1185.10522	
3901	39.000	-1658.61206	2025.69373	1185.08643	
3902	39.010	-1658.53320	2025.49646	1185.02588	
3903	39.020	-1658.52283	2025.34106	1185.13550	
3904	39.030	-1658.50305	2025.29590	1185.17065	
3905	39.040	-1658.48291	2025.24902	1185.14136	
3906	39.050	-1658.48328	2025.16858	1185.12939	
3907	39.060	-1658.62048	2024.23218	1184.92358	
3908	39.070	-1658.45447	2024.13342	1184.95264	
3909	39.080	-1658.37292	2023.89526	1184.98975	
3910	39.090	-1658.57141	2024.00146	1184.92664	
3911	39.100	-1658.34497	2023.67761	1185.07959	
3912	39.110	-1658.28430	2023.59473	1185.11853	
3913	39.120	-1658.30420	2023.54468	1185.07397	
3914	39.130	-1658.24817	2023.38550	1185.11584	
3915	39.140	-1658.82825	2022.99402	1184.28613	
3916	39.150	-1659.89063	2021.55383	1182.08850	
3917	39.160	-1659.87769	2021.12219	1181.36975	
3918	39.170	-1659.87024	2021.07495	1181.37573	
3919	39.180	-1659.92261	2021.36072	1182.04858	
3920	39.190	-1658.42822	2022.35474	1183.91016	
3921	39.200	-1659.92761	2021.22668	1182.05933	
3922	39.210	-1659.96326	2021.01953	1182.01025	
3923	39.220	-1658.87769	2022.51904	1184.34998	
3924	39.230	-1659.92725	2020.90466	1182.09094	
3925	39.240	-1659.05725	2020.73914	1182.29773	
3926	39.250	-1659.42261	2020.56287	1182.06445	
3927	39.260	-1658.10388	2021.59509	1183.95166	
3928	39.270	-1659.31458	2020.40662	1182.10352	
3929	39.280	-1659.27283	2019.99548	1181.40723	
3930	39.290	-1657.88855	2021.36633	1183.99792	
3931	39.300	-1657.45862	2021.37646	1184.39514	
3932	39.310	-1659.07300	2020.24670	1182.18774	
3933	39.320	-1657.46814	2021.24353	1184.24951	
3934	39.330	-1657.53455	2021.26624	1184.40149	
3935	39.340	-1657.63086	2021.17151	1184.44482	
3936	39.350	-1657.44666	2021.38281	1184.97229	
3937	39.360	-1657.92383	2021.45215	1185.08362	
3938	39.370	-1659.22791	2019.46350	1181.58508	
3939	39.380	-1658.12695	2020.65564	1183.90845	
3940	39.390	-1659.39954	2019.30298	1181.56177	
3941	39.400	-1657.92249	2021.04150	1184.97290	
3942	39.410	-1657.95557	2021.02979	1185.00330	
3943	39.420	-1658.10559	2021.16760	1185.33215	
3944	39.430	-1658.58533	2020.75928	1184.38147	
3945	39.440	-1659.20715	2020.92651	1184.40771	
3946	39.450	-1659.27686	2020.90955	1184.43909	
3947	39.460	-1659.56287	2021.01025	1184.59570	
3948	39.470	-1659.08398	2021.05042	1185.01746	
3949	39.480	-1659.91272	2021.12988	1184.66162	
3950	39.490	-1659.73157	2021.39185	1185.38049	
3951	39.500	-1659.94116	2021.58118	1185.39294	
3952	39.510	-1660.54468	2021.39844	1185.03528	
3953	39.520	-1660.92932	2021.67041	1185.01099	
3954	39.530	-1661.07104	2021.73328	1184.82678	
3955	39.540	-1663.23633	2022.44421	1185.02307	
3956	39.550	-1663.39941	2022.51465	1184.99512	
3957	39.560	-1663.50574	2022.61902	1184.96790	
3958	39.570	-1664.38000	2022.75049	1184.89783	
3959	39.580	-1664.29504	2022.46875	1184.41968	
3960	39.590	-1664.92285	2022.64673	1184.60217	
3961	39.600	-1665.64502	2022.93677	1185.07581	
3962	39.610	-1664.28662	2022.19751	1184.09558	
3963	39.620	-1669.63599	2021.75696	1182.74744	
3964	39.630	-1670.61011	2021.58875	1183.37915	
3965	39.640	-1669.18225	2021.33899	1183.16223	
3966	39.650	-1668.25049	2022.81677	1185.30469	
3967	39.660	-1668.68811	2023.13416	1185.80273	
3968	39.670	-1669.18311	2023.14368	1185.73315	
3969	39.680	-1671.43799	2023.43494	1185.78979	
3970	39.690	-1671.78870	2023.68042	1185.78857	
3971	39.700	-1672.30078	2024.17163	1185.23401	
3972	39.710	-1672.49561	2024.34778	1185.15808	
